<svg
  xmlns="http://www.w3.org/2000/svg"
  width="13.85mm"
  height="12.85mm"
  viewBox="0 0 39.27 36.43"
>
  <g>
    <path
      d="M3.47,20.68,18.11,35.4a3.49,3.49,0,0,0,6-2.47V3.5a3.49,3.49,0,0,0-6-2.46L3.47,15.75A3.49,3.49,0,0,0,3.47,20.68Z"
      style="fill: #fff"
    ></path>
    <path
      d="M2.88,10.54H8a.66.66,0,0,1,.66.66v14A.66.66,0,0,1,8,25.9H2.88A2.88,2.88,0,0,1,0,23v-9.6a2.88,2.88,0,0,1,2.88-2.88Z"
      style="fill: #fff"
    ></path>
    <rect x="7.32" y="8.09" width="2.71" height="20.25" rx="1.32" style="fill: #79be76"></rect>
    <path
      d="M29,10.89a10.36,10.36,0,0,1,0,14.66"
      style="fill: none;stroke: #79be76;stroke-linecap: round;stroke-linejoin: round;stroke-width: 2px"
    ></path>
    <path
      d="M33.17,5.61a17.82,17.82,0,0,1,0,25.22"
      style="fill: none;stroke: #79be76;stroke-linecap: round;stroke-linejoin: round;stroke-width: 2px"
    ></path>
  </g>
</svg>