<svg
  xmlns="http://www.w3.org/2000/svg"
  width="13.85mm"
  height="12.85mm"
  viewBox="0 0 39.27 36.43"
>
  <path
    d="M3.55,20.68,18.19,35.4a3.49,3.49,0,0,0,6-2.47V3.5a3.49,3.49,0,0,0-6-2.46L3.55,15.75A3.49,3.49,0,0,0,3.55,20.68Z"
    transform="translate(-0.08 0)"
    style="fill: #fff"
  ></path>
  <path
    d="M2.88,10.54H8a.66.66,0,0,1,.66.66v14A.66.66,0,0,1,8,25.9H2.88A2.88,2.88,0,0,1,0,23v-9.6a2.88,2.88,0,0,1,2.88-2.88Z"
    style="fill: #fff"
  ></path>
  <rect x="7.32" y="8.09" width="2.71" height="20.25" rx="1.32" style="fill: #e30613"></rect>
  <line
    x1="30.14"
    y1="6.27"
    x2="38.27"
    y2="30.26"
    style="fill: none;stroke: #bf3b18;stroke-linecap: round;stroke-linejoin: round;stroke-width: 2px"
  ></line>
  <line
    x1="38.27"
    y1="6.27"
    x2="30.14"
    y2="30.26"
    style="fill: none;stroke: #bf3b18;stroke-linecap: round;stroke-linejoin: round;stroke-width: 2px"
  ></line>
</svg>